<svg xmlns="http://www.w3.org/2000/svg" width="40" height="40" fill="none" viewBox="0 0 40 40"><g clip-path="url(#a)"><path fill="#fff" d="M9.688 17.246q.254 0 .566.078t.625.215.625.254.566.234l-.312.04q-.156.018-.332.019-.332 0-.606-.098a2.3 2.3 0 0 1-.508-.254 2 2 0 0 0-.468-.234 4 4 0 0 0-.43-.117.8.8 0 0 0-.351.078q-.157.077-.313.176 0-.08-.137-.079.136-.135.508-.215.37-.078.567-.097m2.636.879q.8 0 1.465.273a4 4 0 0 1-1.113.234q-.39 0-.703-.078.098-.156.195-.195.098-.039.156-.234M20 0q2.754 0 5.293.722a21 21 0 0 1 4.766 2.012A19.3 19.3 0 0 1 34.12 5.88a20.6 20.6 0 0 1 3.125 4.043 20.5 20.5 0 0 1 2.031 4.765Q40.02 17.266 40 20q0 2.754-.723 5.293a21 21 0 0 1-2.011 4.765 19.3 19.3 0 0 1-3.145 4.063 20.6 20.6 0 0 1-4.043 3.125 20.5 20.5 0 0 1-4.765 2.031Q22.733 40.02 20 40q-2.754 0-5.293-.723a21 21 0 0 1-4.766-2.012 19.3 19.3 0 0 1-4.062-3.144 20.6 20.6 0 0 1-3.125-4.043 20.5 20.5 0 0 1-2.031-4.766A18.6 18.6 0 0 1 0 20q0-2.754.723-5.293A21 21 0 0 1 2.734 9.94 19.3 19.3 0 0 1 5.88 5.88a20.6 20.6 0 0 1 4.043-3.125A20.5 20.5 0 0 1 14.687.722 18.6 18.6 0 0 1 20 0m14.883 10.84a23 23 0 0 0-.547-.82q-.273-.391-.566-.801a.7.7 0 0 1-.098.253q-.06.08-.078.352 0 .176.136.332.138.156.352.313.214.156.43.234zm-1.348-1.914q0 .156-.058.214h.117q.077 0 .117.02zM20 37.5q2.226 0 4.355-.567a18 18 0 0 0 4.024-1.601 17.5 17.5 0 0 0 3.515-2.54 18 18 0 0 0 2.833-3.359q-.254-.585-.489-1.191a3.4 3.4 0 0 1-.234-1.25q0-.703.059-1.133.058-.429.136-.762.078-.331.078-.566t-.058-.605q-.06-.372-.332-.801-.274-.43-.723-1.211.02-.137.059-.371.039-.235.078-.488a2 2 0 0 0 .02-.47 1 1 0 0 0-.098-.37q-.508-.06-1.055-.215a3.1 3.1 0 0 1-.977-.469l.118-.098q-.255.059-.508.157a6 6 0 0 0-.488.215q-.235.117-.508.156-.274.039-.528.078l-.312-.04.058-.136a8 8 0 0 0-.585.195 1.7 1.7 0 0 1-.606.117q-.195 0-.566-.136a6 6 0 0 1-.743-.332 4 4 0 0 1-.664-.43q-.293-.234-.293-.45l.04-.058a1 1 0 0 0-.254-.214 6 6 0 0 1-.293-.196 2 2 0 0 1-.254-.215.32.32 0 0 1-.098-.273l.215-.176-.45-.058-.156-.587q.04.099.176.079a.46.46 0 0 0 .215-.079l-.703-.37.488-1.25q-.273-1.016-.137-1.563.137-.547.528-.899.39-.35.86-.703a5.5 5.5 0 0 0 .956-.957l-.058-.234 1.289-1.563.293-.039q.546 0 1.23-.039t1.387-.136 1.387-.196q.683-.098 1.25-.254a19 19 0 0 0-1.309-1.406 17 17 0 0 0-1.465-1.27 9 9 0 0 0-.527.215 4 4 0 0 0-.625.352q-.312.215-.488.469-.177.254-.215.527l.117.371q-.352.567-.781.703-.43.138-.88.157-.448.02-.937 0a2.1 2.1 0 0 0-.937.175l-.313-.664.293-1.132-.332-.489 3.379-1.054a1.56 1.56 0 0 0-.703-.82 2.16 2.16 0 0 0-1.074-.274V4.51l1.093-.175a18 18 0 0 0-3.77-1.367A17 17 0 0 0 20 2.499q-1.7 0-3.36.333-1.66.332-3.203.957A17.7 17.7 0 0 0 10.45 5.35a16.7 16.7 0 0 0-2.636 2.11q.507 0 .78.254.274.254.509.566t.488.566.683.274l.313-.235-.04-.43.645-.917-.507-1.445q.097-.06.293-.196t.332-.137q.586 0 .898.06.312.058.547.214.234.156.41.45.176.292.547.741l.703-.547.625.254q.43.176.879.43.45.254.762.527.312.274.332.508a.57.57 0 0 1-.215.469 1.8 1.8 0 0 1-.567.293 4.5 4.5 0 0 1-.722.176q-.372.058-.742.156-.372.098-.567.195a.43.43 0 0 0-.234.332l1.133.371q-.39.333-.84.606t-.938.508l.078.332-1.796.703v.547l-.137.058.098-.683-.079-.02q-.136 0-.156.059a.4.4 0 0 0-.02.136q0 .08.04.157.038.077.02.117l-.255-.137.04.078q0 .06.058.176.058.117.156.215t.156.195q.06.098.079.098 0 .058-.079.117a.44.44 0 0 1-.195.078q-.117.02-.156.059t0 .02q.273 0 .117.038a3 3 0 0 0-.488.196 2 2 0 0 0-.606.449q-.273.293-.312.86 0 .33.02.644.018.312-.02.644-.274-.742-.82-1.132-.547-.39-1.329-.391l-.84.078.41.274q-.331-.04-.683-.079a4.4 4.4 0 0 0-.723-.02 1.8 1.8 0 0 0-.664.157q-.292.137-.586.41l-.117.88q0 .624.274 1.015.273.39.957.41.585 0 1.152-.176a11 11 0 0 0 1.113-.41q-.176.43-.39.82t-.313.86l.254.117q.47-.312.86-.098.39.215.761.625l.762.84q.39.43.84.625l-.664.352-1.563-.88a.7.7 0 0 1 .04.176q.018.137-.02.06L7.89 19.96a6.3 6.3 0 0 1-1.328-.196 11.8 11.8 0 0 1-2.773-1.113q-.627-.352-1.153-.742L2.5 20q0 2.383.645 4.648.645 2.266 1.816 4.258a17 17 0 0 0 2.871 3.633 18 18 0 0 0 3.77 2.793 1.9 1.9 0 0 1-.02-.82q.078-.41.195-.82.118-.411.254-.821a2.6 2.6 0 0 0 .137-.84q0-.625-.195-1.309a16 16 0 0 0-.47-1.386 19 19 0 0 0-.605-1.387 10 10 0 0 1-.527-1.29q-.195-.604-.312-1.132-.118-.527.117-.918l-.293-.137q.117-.273.312-.527t.41-.508a2 2 0 0 0 .47-1.133q0-.195-.079-.41a8 8 0 0 1-.137-.41l.41.098q.332-.762.899-1.035.567-.274 1.426-.293.098 0 .41.078t.664.215q.351.135.664.215.313.078.469.156 0 .136.156.175.156.04.176.137l-.04.157q.06.018.274.136.215.117.469.293t.45.313q.194.136.273.214.351 0 .957.235.605.234 1.328.586.723.351 1.425.84.704.487 1.329.976.624.488.957.977.332.488.39.86l-.664.702q.078.996-.136 1.524a2.1 2.1 0 0 1-.665.879q-.448.352-1.035.586-.585.234-1.27.664 0 .39-.195.84-.195.448-.488.859-.293.41-.703.683t-.82.274l-.82-.625q.037.04 0 .137-.04.098-.098.039.195.371.097.859a4.5 4.5 0 0 1-.332.996 7.5 7.5 0 0 1-.527.957q-.293.45-.527.762 1.054.273 2.11.41 1.053.137 2.128.137"/></g><defs><clipPath id="a"><path fill="#fff" d="M0 0h40v40H0z"/></clipPath></defs></svg>