<svg xmlns="http://www.w3.org/2000/svg" width="1310" height="180" fill="none" viewBox="0 0 1310 180">
  <g clip-path="url(#a)">
    <path fill="url(#b)" d="M-7-6h1323v212H-7z"/>
    <g style="mix-blend-mode:overlay">
      <path fill="url(#c)" fill-opacity=".6" d="m1392.13-166.574-85.41 27.414c-85.28 27.959-256.29 81.968-416.858 181.034-160.568 99.066-311.33 240.459-485.407 281.223-174.266 39.945-371.848-20.739-470.86-52.037l-98.886-30.752 98.549 425.343 87.086-20.177 435.429-100.887 522.515-121.063c174.172-40.354 348.342-80.709 435.432-100.886l87.08-20.177-108.67-469.035Z"/>
      <path fill="url(#d)" fill-opacity=".6" d="m1348-128.615-75.8 55.96c-75.64 56.643-227.48 167.536-391.602 225.392-164.125 57.856-341.331 59.254-520.242 53.296C181.287 199.39.118 183.68-90.467 175.825l-90.585-7.855 118.551 511.675 84.243-19.519a87915119.847 87915119.847 0 0 0 926.669-214.703c168.489-39.037 336.969-78.074 421.209-97.592l84.25-19.519L1348-128.615Z"/>
    </g>
  </g>
  <defs>
    <linearGradient id="b" x1="673.689" x2="705.382" y1="-62" y2="222.07" gradientUnits="userSpaceOnUse">
      <stop offset=".3" stop-color="#000B6B"/>
      <stop offset="1" stop-color="#0079D6"/>
    </linearGradient>
    <linearGradient id="c" x1="-66.742" x2="1261.06" y1="665.651" y2="-111.412" gradientUnits="userSpaceOnUse">
      <stop stop-color="#fff"/>
      <stop offset="1" stop-color="#fff" stop-opacity=".33"/>
    </linearGradient>
    <linearGradient id="d" x1="-62.501" x2="1258.2" y1="679.645" y2="-36.764" gradientUnits="userSpaceOnUse">
      <stop offset=".442" stop-color="#fff"/>
      <stop offset="1" stop-color="#fff" stop-opacity=".4"/>
    </linearGradient>
    <clipPath id="a">
      <path fill="#fff" d="M0 0h1310v180H0z"/>
    </clipPath>
  </defs>
</svg>
